<svg version="1.1" xmlns="http://www.w3.org/2000/svg" xmlns:xlink="http://www.w3.org/1999/xlink" width="21.0234" height="20.81847" viewBox="0,0,21.0234,20.81847"><g transform="translate(-170,-310)"><g data-paper-data="{&quot;isPaintingLayer&quot;:true}" fill-rule="nonzero" stroke-linecap="butt" stroke-linejoin="miter" stroke-miterlimit="10" stroke-dasharray="" stroke-dashoffset="0" style="mix-blend-mode: normal"><path d="M191.0234,315.81847v10c0,2.76142 -2.23857,5 -5,5h-10c-2.76143,0 -5,-2.23858 -5,-5v-10c0,-2.76142 2.23857,-5 5,-5h10c2.76143,0 5,2.23858 5,5z" fill-opacity="0.38039" fill="#000000" stroke="none" stroke-width="1"/><path d="M171.77091,328.11918v-16.45978h16.45979v16.45978z" fill="#e62e2c" stroke="#000000" stroke-width="0"/><path d="M178,320c0,0.55228 -0.44772,1 -1,1c-0.55228,0 -1,-0.44772 -1,-1c0,-0.55228 0.44772,-1 1,-1c0.55228,0 1,0.44772 1,1zM178,324c0,0.55228 -0.44772,1 -1,1c-0.55228,0 -1,-0.44772 -1,-1c0,-0.55228 0.44772,-1 1,-1c0.55228,0 1,0.44772 1,1zM178,316c0,0.55228 -0.44772,1 -1,1c-0.55228,0 -1,-0.44772 -1,-1c0,-0.55228 0.44772,-1 1,-1c0.55228,0 1,0.44772 1,1zM184,316c0,0.55228 -0.44772,1 -1,1c-0.55228,0 -1,-0.44772 -1,-1c0,-0.55228 0.44772,-1 1,-1c0.55228,0 1,0.44772 1,1zM190,315v10c0,2.76142 -2.23858,5 -5,5h-10c-2.76142,0 -5,-2.23858 -5,-5v-10c0,-2.76142 2.23858,-5 5,-5h10c2.76142,0 5,2.23858 5,5zM188,315c0,-1.65685 -1.34315,-3 -3,-3h-10c-1.65685,0 -3,1.34315 -3,3v10c0,1.65685 1.34315,3 3,3h10c1.65685,0 3,-1.34315 3,-3zM184,320c0,0.55228 -0.44772,1 -1,1c-0.55228,0 -1,-0.44772 -1,-1c0,-0.55228 0.44772,-1 1,-1c0.55228,0 1,0.44772 1,1zM184,324c0,0.55228 -0.44772,1 -1,1c-0.55228,0 -1,-0.44772 -1,-1c0,-0.55228 0.44772,-1 1,-1c0.55228,0 1,0.44772 1,1z" fill="#000000" stroke="none" stroke-width="1"/></g></g></svg>